<?xml version="1.0" encoding="UTF-8"?>
<svg id="Layer_2" data-name="Layer 2" xmlns="http://www.w3.org/2000/svg" viewBox="0 0 363.03 71.73">
  <defs>
    <style>
      .cls-1 {
        fill: #e57559;
      }

      .cls-2 {
        fill: #fff;
      }

      .cls-3 {
        fill: #133457;
      }
    </style>
  </defs>
  <g id="Layer_1-2" data-name="Layer 1">
    <g>
      <g>
        <path class="cls-2" d="M94.38,59.33c-2.66,0-5.11-.43-7.37-1.3-2.26-.86-4.21-2.08-5.86-3.65-1.65-1.57-2.93-3.41-3.84-5.52-.91-2.11-1.37-4.42-1.37-6.91s.46-4.8,1.37-6.91c.91-2.11,2.2-3.95,3.86-5.52,1.66-1.57,3.62-2.78,5.86-3.65,2.24-.86,4.67-1.3,7.3-1.3s5.1.43,7.32,1.3c2.22.86,4.16,2.08,5.81,3.65,1.65,1.57,2.94,3.4,3.86,5.5.93,2.1,1.39,4.41,1.39,6.94s-.46,4.81-1.39,6.94c-.93,2.13-2.22,3.97-3.86,5.52-1.65,1.55-3.58,2.76-5.81,3.62-2.22.86-4.65,1.3-7.27,1.3ZM94.33,52.7c1.5,0,2.89-.26,4.15-.77,1.26-.51,2.38-1.25,3.34-2.21s1.7-2.1,2.23-3.41c.53-1.31.79-2.77.79-4.37s-.26-3.06-.79-4.37c-.53-1.31-1.26-2.45-2.21-3.41-.94-.96-2.06-1.7-3.34-2.21-1.28-.51-2.67-.77-4.18-.77s-2.89.26-4.15.77c-1.26.51-2.38,1.25-3.34,2.21s-1.7,2.1-2.23,3.41c-.53,1.31-.79,2.77-.79,4.37s.26,3.02.79,4.34c.53,1.33,1.26,2.47,2.21,3.43.94.96,2.06,1.7,3.34,2.21,1.28.51,2.67.77,4.18.77Z"/>
        <path class="cls-2" d="M118.57,58.75V25.15h6.43l14.3,23.71h-3.41l14.06-23.71h6.38l.1,33.6h-7.3l-.05-22.42h1.34l-11.23,18.86h-3.5l-11.47-18.86h1.63v22.42h-7.3Z"/>
        <path class="cls-2" d="M172.13,52.51h18.29v6.24h-26.02V25.15h25.39v6.24h-17.66v21.12ZM171.56,38.69h16.18v6.05h-16.18v-6.05Z"/>
        <path class="cls-2" d="M212.84,59.33c-2.66,0-5.1-.42-7.32-1.27-2.22-.85-4.16-2.06-5.81-3.62-1.65-1.57-2.93-3.41-3.84-5.52-.91-2.11-1.37-4.43-1.37-6.96s.46-4.85,1.37-6.96c.91-2.11,2.2-3.95,3.86-5.52s3.62-2.78,5.86-3.62c2.24-.85,4.7-1.27,7.39-1.27,2.98,0,5.66.5,8.04,1.49,2.38.99,4.39,2.43,6.02,4.32l-4.99,4.61c-1.22-1.28-2.54-2.23-3.98-2.86-1.44-.62-3.01-.94-4.7-.94s-3.12.26-4.46.77c-1.34.51-2.5,1.25-3.48,2.21-.98.96-1.73,2.1-2.26,3.41-.53,1.31-.79,2.77-.79,4.37s.26,3.01.79,4.32c.53,1.31,1.28,2.46,2.26,3.43.98.98,2.13,1.72,3.46,2.23,1.33.51,2.79.77,4.39.77s3.03-.25,4.49-.74c1.46-.5,2.87-1.34,4.25-2.52l4.42,5.62c-1.82,1.38-3.94,2.43-6.36,3.17-2.42.74-4.82,1.1-7.22,1.1ZM219.32,54.05v-12.62h7.1v13.63l-7.1-1.01Z"/>
        <path class="cls-2" d="M229.21,58.75l14.98-33.6h7.68l15.02,33.6h-8.16l-12.29-29.66h3.07l-12.34,29.66h-7.97ZM236.69,51.55l2.06-5.9h17.28l2.11,5.9h-21.46Z"/>
        <path class="cls-2" d="M281.43,59.33c-2.69,0-5.26-.36-7.73-1.08-2.46-.72-4.45-1.66-5.95-2.81l2.64-5.86c1.44,1.02,3.14,1.86,5.11,2.52,1.97.66,3.96.98,5.98.98,1.54,0,2.78-.15,3.72-.46.94-.3,1.64-.73,2.09-1.27.45-.54.67-1.17.67-1.87,0-.9-.35-1.61-1.06-2.14-.7-.53-1.63-.96-2.78-1.3-1.15-.34-2.42-.66-3.82-.96-1.39-.3-2.78-.68-4.18-1.13-1.39-.45-2.66-1.02-3.82-1.73-1.15-.7-2.09-1.63-2.81-2.78-.72-1.15-1.08-2.62-1.08-4.42,0-1.92.52-3.67,1.56-5.26,1.04-1.58,2.61-2.85,4.7-3.79,2.1-.94,4.73-1.42,7.9-1.42,2.11,0,4.19.25,6.24.74,2.05.5,3.86,1.24,5.42,2.23l-2.4,5.9c-1.57-.9-3.14-1.56-4.7-1.99-1.57-.43-3.1-.65-4.61-.65s-2.74.18-3.7.53c-.96.35-1.65.81-2.06,1.37-.42.56-.62,1.21-.62,1.94,0,.86.35,1.56,1.06,2.09.7.53,1.63.95,2.78,1.27,1.15.32,2.42.64,3.82.96,1.39.32,2.78.69,4.18,1.1,1.39.42,2.66.98,3.82,1.68,1.15.7,2.09,1.63,2.81,2.78s1.08,2.61,1.08,4.37c0,1.89-.53,3.62-1.58,5.18-1.06,1.57-2.63,2.83-4.73,3.79-2.1.96-4.74,1.44-7.94,1.44Z"/>
        <path class="cls-1" d="M299,51.69v-5.23l15.84-21.31h8.16l-15.5,21.31-3.79-1.1h26.45v6.34h-31.15ZM317.09,58.75v-7.06l.24-6.34v-6.29h7.34v19.68h-7.58Z"/>
        <path class="cls-1" d="M336.44,58.75v-30.72l3.36,3.36h-10.08v-6.24h14.5v33.6h-7.78Z"/>
        <path class="cls-1" d="M355.25,58.75v-30.72l3.36,3.36h-10.08v-6.24h14.5v33.6h-7.78Z"/>
      </g>
      <path class="cls-2" d="M49.31.92c11.1,9.7,17.97,23.31,15.44,38.41-4.69,28.01-37.24,39.62-61.33,27.84l-3.42-1.84c1.5.28,2.99.67,4.51.89,9,1.31,24.32-1.02,30.36-8.57-.17-.35.04-.51.39-.39l.64-.69c14.83-10.49,25.54-31.56,17.36-49.2-1.07-2.31-2.44-4.41-4.22-6.19-.09-.25.03-.35.28-.26Z"/>
      <path class="cls-1" d="M56.21,17.38c-.52-5.49-2.75-12.12-6.7-16.07-.06-.06-.46-.34-.2-.39-.07-.07-1.45-1.41-1.17-.72,6.52,9.78,5,23.84-5.73,29.86-.17-.11-.24-.05-.13.13h-.45c-2.2,1.34-4.68,2.15-7.21,2.78l-5.83,1.32-1.6.72c-.99.31-2.25.85-3.21,1.28-7.7,3.39-13.54,9.33-17.98,16.33,4.58,3.99,11.12,5.59,17.09,6.07,4.3.34,7.06-.09,11.18-1.05.17-.04.49-.23.6.01.1-.12.29-.22.39-.39,2.01-1.16,3.83-2.71,5.53-4.29,9.52-8.83,16.67-22.26,15.41-35.59Z"/>
      <path class="cls-2" d="M42.42,30.06c.01.12-.09.1-.13.13-1.46,1.01-3.54,1.83-5.23,2.38-3.21,1.03-6.69,1.45-9.86,2.44,4.78-2.98,9.07-6.44,11.34-11.75l1.6-4.9c1.39,3.52,2.04,7.61,2.14,11.39,0,.12.04.24.13.31Z"/>
      <path class="cls-3" d="M16.75,46.49c4.56-.73,4.85,5.95.86,6.21s-4.55-5.61-.86-6.21Z"/>
    </g>
  </g>
</svg>